<svg width="13" height="17" viewBox="0 0 13 17" fill="none" xmlns="http://www.w3.org/2000/svg">
<path fill-rule="evenodd" clip-rule="evenodd" d="M4.0039 15.5021C4.0199 15.7611 3.8229 15.9831 3.5609 16.0041H3.5019H0.5019C0.2429 16.0201 0.0199004 15.8231 -9.95799e-05 15.5611V15.5021V0.502055C-0.0160996 0.243055 0.1809 0.0200549 0.4429 5.49153e-05H0.5019H3.5019C3.7609 -0.0159451 3.9839 0.181055 4.0039 0.443055V0.502055V15.5021ZM12.0039 0.506055C12.0199 0.247055 11.8229 0.0230549 11.5609 0.00405492H11.5019H8.5019C8.2429 -0.0119451 8.0199 0.185055 7.9999 0.447055V0.506055V15.5061C7.9839 15.7651 8.1799 15.9871 8.4429 16.0081H8.5019H11.5019C11.7599 16.0231 11.9839 15.8271 12.0039 15.5641V15.5061V0.506055Z" fill="white"/>
</svg>
